<svg xmlns="http://www.w3.org/2000/svg" xmlns:xlink="http://www.w3.org/1999/xlink" width="851" zoomAndPan="magnify" viewBox="0 0 638.25 236.249991" height="315" preserveAspectRatio="xMidYMid meet" version="1.0"><defs><g/><clipPath id="a62bfead04"><path d="M 0.636719 0 L 636.867188 0 L 636.867188 235.503906 L 0.636719 235.503906 Z M 0.636719 0 " clip-rule="nonzero"/></clipPath></defs><g clip-path="url(#a62bfead04)"><path fill="#ffffff" d="M 0.636719 0 L 636.867188 0 L 636.867188 235.503906 L 0.636719 235.503906 Z M 0.636719 0 " fill-opacity="1" fill-rule="nonzero"/><path fill="#f5f5f5" d="M 0.636719 0 L 636.867188 0 L 636.867188 235.503906 L 0.636719 235.503906 Z M 0.636719 0 " fill-opacity="1" fill-rule="nonzero"/></g><g fill="#000000" fill-opacity="1"><g transform="translate(150.477802, 185.401152)"><g><path d="M 20.09375 -44.90625 C 14.238281 -37.25 11.3125 -28.976562 11.3125 -20.09375 C 11.3125 -9.507812 15.757812 -1.289062 24.65625 4.5625 C 29.832031 8.050781 35.710938 9.796875 42.296875 9.796875 C 48.878906 9.796875 54.585938 8.5 59.421875 5.90625 C 68.546875 1.175781 73.671875 -6.753906 74.796875 -17.890625 C 74.898438 -18.679688 74.953125 -19.472656 74.953125 -20.265625 C 74.953125 -24.421875 73.796875 -28.921875 71.484375 -33.765625 C 69.179688 -38.609375 65.441406 -43.054688 60.265625 -47.109375 L 29.875 -71.078125 C 23.238281 -76.253906 19.921875 -82.945312 19.921875 -91.15625 C 19.921875 -99.375 22.566406 -106.328125 27.859375 -112.015625 C 33.148438 -117.703125 40.296875 -120.546875 49.296875 -120.546875 C 53.796875 -120.546875 58.691406 -119.984375 63.984375 -118.859375 L 70.734375 -118.859375 L 71.078125 -98.09375 L 69.390625 -98.09375 C 69.273438 -103.488281 67.332031 -107.734375 63.5625 -110.828125 C 59.789062 -113.929688 55.0625 -115.484375 49.375 -115.484375 C 43.695312 -115.484375 38.941406 -113.597656 35.109375 -109.828125 C 31.285156 -106.054688 29.375 -101.210938 29.375 -95.296875 C 29.375 -89.390625 31.847656 -84.46875 36.796875 -80.53125 L 68.03125 -55.875 C 80.414062 -46.082031 86.609375 -34.265625 86.609375 -20.421875 C 86.609375 -10.066406 82.5 -1.175781 74.28125 6.25 C 67.1875 12.664062 57.734375 15.875 45.921875 15.875 C 38.710938 15.875 32.296875 14.519531 26.671875 11.8125 C 16.097656 6.863281 9.738281 -1.570312 7.59375 -13.5 C 7.257812 -15.300781 7.09375 -17.582031 7.09375 -20.34375 C 7.09375 -23.101562 7.878906 -26.875 9.453125 -31.65625 C 11.023438 -36.4375 14.066406 -41.25 18.578125 -46.09375 Z M 20.09375 -44.90625 "/></g></g></g><g fill="#000000" fill-opacity="1"><g transform="translate(104.143073, 152.174245)"><g><path d="M 54.359375 -1.6875 L 56.5625 -1.6875 L 56.5625 0 L 19.59375 0 L 19.59375 -1.6875 L 21.78125 -1.6875 C 24.707031 -1.6875 27.238281 -2.726562 29.375 -4.8125 C 31.519531 -6.894531 32.59375 -9.398438 32.59375 -12.328125 L 32.59375 -113.625 L 14.515625 -112.609375 C 3.148438 -111.929688 -2.53125 -107.820312 -2.53125 -100.28125 C -2.53125 -97.238281 -1.546875 -94.648438 0.421875 -92.515625 C 2.390625 -90.378906 5.515625 -89.195312 9.796875 -88.96875 L 9.796875 -87.953125 C 8.222656 -87.617188 6.644531 -87.453125 5.0625 -87.453125 C 0.113281 -87.453125 -3.597656 -89.421875 -6.078125 -93.359375 C -7.535156 -95.609375 -8.265625 -98.085938 -8.265625 -100.796875 C -8.265625 -110.359375 -1.003906 -115.925781 13.515625 -117.5 C 13.617188 -117.5 19.210938 -117.863281 30.296875 -118.59375 C 41.390625 -119.332031 50.144531 -120.320312 56.5625 -121.5625 L 56.890625 -119.875 C 52.054688 -119.082031 48.625 -117.445312 46.59375 -114.96875 C 44.570312 -112.488281 43.5625 -109.054688 43.5625 -104.671875 L 43.5625 -12.328125 C 43.675781 -9.398438 44.769531 -6.894531 46.84375 -4.8125 C 48.925781 -2.726562 51.429688 -1.6875 54.359375 -1.6875 Z M 54.359375 -1.6875 "/></g></g></g><g fill="#000000" fill-opacity="1"><g transform="translate(328.492484, 148.328995)"><g><path d="M 7.046875 -2.125 L 7.046875 -26.578125 C 7.046875 -27.203125 6.734375 -27.515625 6.109375 -27.515625 L 2.984375 -27.515625 L 2.984375 -28.703125 L 6.25 -28.703125 C 8.90625 -28.703125 10.765625 -28.835938 11.828125 -29.109375 L 11.828125 -2 C 11.828125 -1.46875 12.140625 -1.203125 12.765625 -1.203125 L 15.875 -1.203125 L 15.875 0 L 2.984375 0 L 2.984375 -1.203125 L 6.109375 -1.203125 C 6.734375 -1.203125 7.046875 -1.507812 7.046875 -2.125 Z M 7.203125 -36.046875 C 6.609375 -36.648438 6.3125 -37.394531 6.3125 -38.28125 C 6.3125 -39.164062 6.609375 -39.90625 7.203125 -40.5 C 7.804688 -41.101562 8.550781 -41.40625 9.4375 -41.40625 C 10.320312 -41.40625 11.0625 -41.101562 11.65625 -40.5 C 12.257812 -39.90625 12.5625 -39.164062 12.5625 -38.28125 C 12.5625 -37.394531 12.257812 -36.648438 11.65625 -36.046875 C 11.0625 -35.453125 10.320312 -35.15625 9.4375 -35.15625 C 8.550781 -35.15625 7.804688 -35.453125 7.203125 -36.046875 Z M 7.203125 -36.046875 "/></g></g></g><g fill="#000000" fill-opacity="1"><g transform="translate(346.368168, 148.328995)"><g><path d="M 30.03125 -19.40625 L 30.03125 -2 C 30.03125 -1.46875 30.34375 -1.203125 30.96875 -1.203125 L 34.09375 -1.203125 L 34.09375 0 L 22.125 0 L 22.125 -1.203125 L 24.328125 -1.203125 C 24.941406 -1.203125 25.25 -1.46875 25.25 -2 L 25.25 -20.265625 C 25.25 -22.523438 24.75 -24.195312 23.75 -25.28125 C 22.757812 -26.363281 21.441406 -26.90625 19.796875 -26.90625 C 17.492188 -26.90625 15.585938 -25.539062 14.078125 -22.8125 C 12.578125 -20.09375 11.828125 -16.1875 11.828125 -11.09375 L 11.828125 -2.125 C 11.828125 -1.507812 12.140625 -1.203125 12.765625 -1.203125 L 14.953125 -1.203125 L 14.953125 0 L 2.984375 0 L 2.984375 -1.203125 L 6.109375 -1.203125 C 6.734375 -1.203125 7.046875 -1.46875 7.046875 -2 L 7.046875 -26.578125 C 7.046875 -27.203125 6.734375 -27.515625 6.109375 -27.515625 L 2.984375 -27.515625 L 2.984375 -28.703125 L 6.25 -28.703125 C 8.90625 -28.703125 10.765625 -28.835938 11.828125 -29.109375 L 11.828125 -20.0625 C 13.335938 -26.351562 16.660156 -29.5 21.796875 -29.5 C 24.097656 -29.5 26.046875 -28.664062 27.640625 -27 C 29.234375 -25.34375 30.03125 -22.8125 30.03125 -19.40625 Z M 30.03125 -19.40625 "/></g></g></g><g fill="#000000" fill-opacity="1"><g transform="translate(382.784052, 148.328995)"><g><path d="M 22.390625 0.40625 L 22.390625 -5.3125 C 19.910156 -1.238281 16.972656 0.796875 13.578125 0.796875 C 10.191406 0.796875 7.523438 -0.550781 5.578125 -3.25 C 3.628906 -5.957031 2.65625 -9.632812 2.65625 -14.28125 C 2.65625 -18.9375 3.894531 -22.632812 6.375 -25.375 C 8.851562 -28.125 11.976562 -29.5 15.75 -29.5 C 18.1875 -29.5 20.398438 -28.90625 22.390625 -27.71875 L 22.390625 -40.9375 C 22.390625 -41.550781 22.082031 -41.859375 21.46875 -41.859375 L 18.34375 -41.859375 L 18.34375 -43.0625 L 21.59375 -43.0625 C 24.25 -43.0625 26.109375 -43.191406 27.171875 -43.453125 L 27.171875 -2.125 C 27.171875 -1.507812 27.484375 -1.203125 28.109375 -1.203125 L 31.234375 -1.203125 L 31.234375 0 L 27.984375 0 C 25.316406 0 23.453125 0.132812 22.390625 0.40625 Z M 15.921875 -27.515625 C 13.640625 -27.515625 11.695312 -26.375 10.09375 -24.09375 C 8.5 -21.8125 7.703125 -18.628906 7.703125 -14.546875 C 7.703125 -10.472656 8.351562 -7.316406 9.65625 -5.078125 C 10.96875 -2.847656 12.625 -1.734375 14.625 -1.734375 C 17.5 -1.734375 20.085938 -3.75 22.390625 -7.78125 L 22.390625 -25.65625 C 20.359375 -26.894531 18.203125 -27.515625 15.921875 -27.515625 Z M 15.921875 -27.515625 "/></g></g></g><g fill="#000000" fill-opacity="1"><g transform="translate(416.010232, 148.328995)"><g><path d="M 16.078125 -29.5 C 19.140625 -29.5 21.554688 -28.476562 23.328125 -26.4375 C 25.097656 -24.40625 25.984375 -21.421875 25.984375 -17.484375 C 25.984375 -16.679688 25.9375 -15.789062 25.84375 -14.8125 L 7.703125 -14.8125 L 7.703125 -14.359375 C 7.703125 -10.148438 8.46875 -6.835938 10 -4.421875 C 11.53125 -2.003906 13.5 -0.796875 15.90625 -0.796875 C 18.320312 -0.796875 20.304688 -1.414062 21.859375 -2.65625 C 23.410156 -3.894531 24.472656 -5.664062 25.046875 -7.96875 L 26.3125 -7.703125 C 25.78125 -5.003906 24.5625 -2.910156 22.65625 -1.421875 C 20.75 0.0546875 18.554688 0.796875 16.078125 0.796875 C 12.222656 0.796875 9.019531 -0.550781 6.46875 -3.25 C 3.925781 -5.957031 2.65625 -9.644531 2.65625 -14.3125 C 2.65625 -18.988281 3.9375 -22.6875 6.5 -25.40625 C 9.070312 -28.132812 12.265625 -29.5 16.078125 -29.5 Z M 21.390625 -19.734375 C 21.390625 -25.179688 19.351562 -27.90625 15.28125 -27.90625 C 13.25 -27.90625 11.507812 -26.796875 10.0625 -24.578125 C 8.625 -22.367188 7.863281 -19.554688 7.78125 -16.140625 L 21.125 -16.140625 C 21.300781 -17.648438 21.390625 -18.847656 21.390625 -19.734375 Z M 21.390625 -19.734375 "/></g></g></g><g fill="#000000" fill-opacity="1"><g transform="translate(445.315718, 148.328995)"><g><path d="M 19.609375 -29.5 C 21.335938 -29.5 22.742188 -28.769531 23.828125 -27.3125 C 24.910156 -25.851562 25.453125 -24.015625 25.453125 -21.796875 C 25.453125 -19.578125 24.546875 -18.46875 22.734375 -18.46875 C 21.660156 -18.46875 20.796875 -18.800781 20.140625 -19.46875 C 20.710938 -20.75 21 -22.054688 21 -23.390625 C 21 -25.734375 20.023438 -26.90625 18.078125 -26.90625 C 16.429688 -26.90625 14.976562 -25.539062 13.71875 -22.8125 C 12.457031 -20.09375 11.828125 -16.144531 11.828125 -10.96875 L 11.828125 -2.125 C 11.828125 -1.507812 12.140625 -1.203125 12.765625 -1.203125 L 17.21875 -1.203125 L 17.21875 0 L 2.984375 0 L 2.984375 -1.203125 L 6.109375 -1.203125 C 6.734375 -1.203125 7.046875 -1.507812 7.046875 -2.125 L 7.046875 -26.578125 C 7.046875 -27.203125 6.734375 -27.515625 6.109375 -27.515625 L 2.984375 -27.515625 L 2.984375 -28.703125 L 6.25 -28.703125 C 8.90625 -28.703125 10.765625 -28.835938 11.828125 -29.109375 L 11.828125 -20.59375 C 12.535156 -23.65625 13.578125 -25.90625 14.953125 -27.34375 C 16.328125 -28.78125 17.878906 -29.5 19.609375 -29.5 Z M 19.609375 -29.5 "/></g></g></g><g fill="#000000" fill-opacity="1"><g transform="translate(471.099224, 148.328995)"><g><path d="M 2 -30.375 C 4.070312 -32.226562 5.109375 -34.117188 5.109375 -36.046875 C 5.109375 -37.972656 4.3125 -39.492188 2.71875 -40.609375 C 2.769531 -41.671875 3.132812 -42.566406 3.8125 -43.296875 C 4.5 -44.023438 5.332031 -44.390625 6.3125 -44.390625 C 8.75 -44.390625 9.96875 -43.0625 9.96875 -40.40625 C 9.96875 -38.582031 9.289062 -36.597656 7.9375 -34.453125 C 6.59375 -32.304688 4.851562 -30.632812 2.71875 -29.4375 Z M 2 -30.375 "/></g></g></g><g fill="#000000" fill-opacity="1"><g transform="translate(483.725166, 148.328995)"><g><path d="M 11.296875 -18.015625 L 18.203125 -15.421875 C 19.847656 -14.796875 21.101562 -13.851562 21.96875 -12.59375 C 22.832031 -11.332031 23.265625 -9.925781 23.265625 -8.375 C 23.265625 -5.976562 22.3125 -3.847656 20.40625 -1.984375 C 18.5 -0.128906 15.9375 0.796875 12.71875 0.796875 C 9.507812 0.796875 6.488281 0.195312 3.65625 -1 C 3.914062 -2.0625 4.046875 -3.921875 4.046875 -6.578125 L 4.046875 -9.234375 L 5.25 -9.234375 L 5.71875 -5.78125 C 6.113281 -2.457031 8.4375 -0.796875 12.6875 -0.796875 C 14.59375 -0.796875 16.175781 -1.378906 17.4375 -2.546875 C 18.707031 -3.722656 19.34375 -5.066406 19.34375 -6.578125 C 19.34375 -8.660156 18.078125 -10.164062 15.546875 -11.09375 L 8.640625 -13.6875 C 7.085938 -14.257812 5.910156 -15.164062 5.109375 -16.40625 C 4.316406 -17.65625 3.921875 -19.050781 3.921875 -20.59375 C 3.921875 -22.945312 4.757812 -25.019531 6.4375 -26.8125 C 8.125 -28.601562 10.238281 -29.5 12.78125 -29.5 C 15.332031 -29.5 18.203125 -28.90625 21.390625 -27.71875 C 21.128906 -26.644531 21 -24.78125 21 -22.125 L 21 -19.46875 L 19.796875 -19.46875 L 19.34375 -22.921875 C 18.988281 -26.117188 16.972656 -27.71875 13.296875 -27.71875 C 11.648438 -27.71875 10.296875 -27.207031 9.234375 -26.1875 C 8.171875 -25.164062 7.640625 -23.96875 7.640625 -22.59375 C 7.640625 -20.46875 8.859375 -18.941406 11.296875 -18.015625 Z M 11.296875 -18.015625 "/></g></g></g><g fill="#000000" fill-opacity="1"><g transform="translate(246.936914, 157.128951)"><g><path d="M 68.859375 -0.9375 L 69.984375 -0.9375 L 69.984375 0 L 49.40625 0 L 49.40625 -0.9375 L 50.625 -0.9375 C 52.195312 -0.9375 53.566406 -1.488281 54.734375 -2.59375 C 55.898438 -3.695312 56.546875 -5.066406 56.671875 -6.703125 L 56.671875 -31.265625 L 20.125 -31.265625 L 20.125 -6.609375 C 20.125 2.203125 17.984375 8.117188 13.703125 11.140625 C 11.742188 12.523438 9.222656 13.566406 6.140625 14.265625 L 5.671875 13.40625 C 8.503906 11.894531 10.597656 9.566406 11.953125 6.421875 C 13.304688 3.273438 13.984375 -1.066406 13.984375 -6.609375 L 13.984375 -59.3125 C 13.984375 -60.945312 13.382812 -62.332031 12.1875 -63.46875 C 10.988281 -64.601562 9.570312 -65.171875 7.9375 -65.171875 L 6.796875 -65.171875 L 6.796875 -66.109375 L 27.390625 -66.109375 L 27.390625 -65.171875 L 26.15625 -65.171875 C 24.519531 -65.171875 23.117188 -64.601562 21.953125 -63.46875 C 20.796875 -62.332031 20.1875 -60.945312 20.125 -59.3125 L 20.125 -34.09375 L 56.671875 -34.09375 L 56.671875 -57.609375 C 56.734375 -65.671875 58.53125 -71.273438 62.0625 -74.421875 C 64.195312 -76.316406 67.09375 -77.671875 70.75 -78.484375 L 71.21875 -77.640625 C 68.382812 -76.128906 66.273438 -73.796875 64.890625 -70.640625 C 63.503906 -67.492188 62.8125 -63.148438 62.8125 -57.609375 L 62.8125 -6.890625 C 62.8125 -5.253906 63.394531 -3.851562 64.5625 -2.6875 C 65.726562 -1.519531 67.160156 -0.9375 68.859375 -0.9375 Z M 68.859375 -0.9375 "/></g></g></g></svg>